<svg width="93" height="22" viewBox="0 0 93 22" fill="none" xmlns="http://www.w3.org/2000/svg">
<path d="M16.8587 9.21961C16.8587 8.21648 16.6612 7.22308 16.2774 6.2963C15.8935 5.36965 15.3309 4.52779 14.6217 3.81853C13.9124 3.10915 13.0698 2.54579 12.1429 2.16188C11.2162 1.77806 10.2227 1.58051 9.21961 1.58051C8.21648 1.58053 7.22308 1.77799 6.2963 2.16188C5.36946 2.54579 4.5279 3.10916 3.81853 3.81853C2.38593 5.25113 1.58056 7.19362 1.58051 9.21961C1.58051 11.2457 2.38587 13.1891 3.81853 14.6217C5.2511 16.0541 7.19376 16.8587 9.21961 16.8587C11.2457 16.8587 13.1891 16.0544 14.6217 14.6217C15.3311 13.9124 15.8934 13.0698 16.2774 12.1429C16.6612 11.2161 16.8587 10.2228 16.8587 9.21961ZM18.4392 9.21961C18.4392 10.4304 18.2008 11.6294 17.7375 12.748C17.3753 13.6224 16.8796 14.4329 16.2722 15.1547L20.3151 19.1976C20.6237 19.5062 20.6237 20.0064 20.3151 20.3151C20.0064 20.6237 19.5062 20.6237 19.1976 20.3151L15.1547 16.2722C13.4994 17.6654 11.4 18.4392 9.21961 18.4392C6.77444 18.4392 4.42903 17.4682 2.70003 15.7392C0.971112 14.0102 0 11.6648 0 9.21961C5.74805e-05 6.77444 0.971027 4.42903 2.70003 2.70003C3.55611 1.84395 4.57275 1.1651 5.69126 0.701761C6.80979 0.238449 8.00892 2.8499e-05 9.21961 0C10.4303 0 11.6294 0.238459 12.748 0.701761C13.8665 1.16506 14.8831 1.84399 15.7392 2.70003C16.5952 3.55607 17.2741 4.57281 17.7375 5.69126C18.2008 6.8098 18.4392 8.00892 18.4392 9.21961Z" fill="#D9D9D9"/>
<path d="M46.5005 0C49.3685 0 52.1193 1.13908 54.1473 3.16709C56.1753 5.1951 57.3144 7.94591 57.3144 10.814C57.3144 13.682 56.1753 16.4328 54.1473 18.4608C52.1193 20.4888 49.3685 21.6279 46.5005 21.6279C43.6324 21.6279 40.8816 20.4888 38.8536 18.4608C36.8256 16.4328 35.6865 13.682 35.6865 10.814C35.6865 7.94591 36.8256 5.1951 38.8536 3.16709C40.8816 1.13908 43.6324 0 46.5005 0ZM43.0166 11.625C43.1763 13.8893 43.9758 15.9439 44.8425 17.4914C45.3256 18.3539 45.8202 19.0423 46.2143 19.5052C46.3207 19.6302 46.417 19.7347 46.5005 19.82C46.584 19.7347 46.6803 19.6302 46.7867 19.5052C47.1808 19.0423 47.6754 18.3539 48.1585 17.4914C49.0252 15.9439 49.8247 13.8893 49.9844 11.625H43.0166ZM37.3466 11.625C37.5362 13.7655 38.4689 15.7824 40.0005 17.3139C41.2096 18.5231 42.7218 19.3579 44.3578 19.7502C44.0551 19.3259 43.736 18.8345 43.4274 18.2834C42.4672 16.569 41.5542 14.239 41.3924 11.625H37.3466ZM51.6086 11.625C51.4467 14.239 50.5337 16.569 49.5736 18.2834C49.2648 18.8347 48.945 19.3258 48.6421 19.7502C50.2785 19.358 51.7911 18.5233 53.0005 17.3139C54.532 15.7824 55.4647 13.7655 55.6543 11.625H51.6086ZM48.6421 1.8766C48.9451 2.30117 49.2646 2.79287 49.5736 3.34451C50.5337 5.05888 51.4467 7.38887 51.6086 10.0029H55.6543C55.4647 7.86244 54.532 5.84552 53.0005 4.31396C51.791 3.10454 50.2786 2.26879 48.6421 1.8766ZM46.5005 1.8069C46.4169 1.89226 46.3209 1.99741 46.2143 2.12266C45.8202 2.58564 45.3256 3.27403 44.8425 4.13655C43.9758 5.68405 43.1763 7.73859 43.0166 10.0029H49.9844C49.8247 7.73859 49.0252 5.68405 48.1585 4.13655C47.6754 3.27403 47.1808 2.58564 46.7867 2.12266C46.68 1.99741 46.5841 1.89226 46.5005 1.8069ZM44.3578 1.8766C42.7217 2.26889 41.2097 3.10479 40.0005 4.31396C38.4689 5.84552 37.5362 7.86244 37.3466 10.0029H41.3924C41.5542 7.38887 42.4672 5.05888 43.4274 3.34451C43.7362 2.79309 44.0549 2.30106 44.3578 1.8766Z" fill="#D9D9D9"/>
<path d="M82.186 1.54485C80.9688 1.54485 79.7635 1.7846 78.6389 2.25042C77.5143 2.71623 76.4925 3.39899 75.6318 4.25971C74.7711 5.12042 74.0883 6.14224 73.6225 7.26682C73.1567 8.3914 72.9169 9.59672 72.9169 10.814C72.9169 12.0312 73.1567 13.2365 73.6225 14.3611C74.0883 15.4857 74.7711 16.5075 75.6318 17.3682C76.4925 18.2289 77.5143 18.9117 78.6389 19.3775C79.7635 19.8433 80.9688 20.0831 82.186 20.0831C84.6443 20.0831 87.002 19.1065 88.7403 17.3682C90.4786 15.6299 91.4551 13.2723 91.4551 10.814C91.4551 8.35563 90.4786 5.998 88.7403 4.25971C87.002 2.52141 84.6443 1.54485 82.186 1.54485ZM71.3721 10.814C71.3721 7.94591 72.5114 5.19534 74.5394 3.16733C76.5674 1.13932 79.318 0 82.186 0C85.0541 0 87.8046 1.13932 89.8326 3.16733C91.8607 5.19534 93 7.94591 93 10.814C93 13.682 91.8607 16.4326 89.8326 18.4606C87.8046 20.4886 85.0541 21.6279 82.186 21.6279C79.318 21.6279 76.5674 20.4886 74.5394 18.4606C72.5114 16.4326 71.3721 13.682 71.3721 10.814ZM82.186 17.3796C85.1722 17.3796 87.593 15.5041 87.593 12.6894C87.593 11.6528 86.7526 10.814 85.7176 10.814H78.656C77.6194 10.814 76.7806 11.6544 76.7806 12.6894C76.7806 15.5026 79.2014 17.3796 82.1876 17.3796H82.186ZM82.186 9.65532C82.5663 9.65542 82.9429 9.58061 83.2943 9.43518C83.6456 9.28974 83.9649 9.07653 84.2339 8.8077C84.5029 8.53887 84.7163 8.21969 84.8619 7.86839C85.0075 7.51709 85.0825 7.14055 85.0826 6.76027C85.0827 6.37998 85.0079 6.0034 84.8625 5.65202C84.717 5.30065 84.5038 4.98136 84.235 4.71238C83.9662 4.44341 83.647 4.23002 83.2957 4.0844C82.9444 3.93878 82.5679 3.86377 82.1876 3.86367C81.4195 3.86347 80.6829 4.16836 80.1397 4.71129C79.5965 5.25422 79.2912 5.9907 79.291 6.75872C79.2908 7.52674 79.5957 8.26339 80.1386 8.8066C80.6815 9.34982 81.418 9.65511 82.186 9.65532Z" fill="#D9D9D9"/>
</svg>
