<svg width="41" height="40" viewBox="0 0 41 40" fill="none" xmlns="http://www.w3.org/2000/svg">
<path d="M39.3744 36.9622L36.4504 39.753L33.7216 36.894L36.6456 34.1032L39.3744 36.9622ZM33.7216 36.894L30.7977 39.6848L28.0689 36.8258L30.9929 34.035L33.7216 36.894ZM39.5696 31.3124L36.6456 34.1032L33.9168 31.2442L36.8408 28.4534L39.5696 31.3124ZM28.0689 36.8258L25.1449 39.6165L22.4162 36.7575L25.3401 33.9668L28.0689 36.8258ZM39.7648 25.6627L36.8408 28.4534L34.112 25.5944L37.036 22.8037L39.7648 25.6627ZM22.4162 36.7575L19.4922 39.5483L16.7635 36.6893L19.6874 33.8986L22.4162 36.7575ZM39.96 20.0129L37.036 22.8037L34.3072 19.9447L37.2312 17.1539L39.96 20.0129ZM16.7635 36.6893L13.8395 39.4801L11.1107 36.6211L14.0347 33.8303L16.7635 36.6893ZM40.1552 14.3631L37.2312 17.1539L34.5025 14.2949L37.4264 11.5041L40.1552 14.3631ZM11.1107 36.6211L8.18676 39.4119L0.000485587 30.8349L2.92445 28.0441L11.1107 36.6211ZM40.3504 8.71336L37.4264 11.5041L29.2401 2.92717L32.1641 0.136394L40.3504 8.71336ZM20.273 16.9493L17.3491 19.74L14.6203 16.881L17.5443 14.0903L20.273 16.9493ZM5.84842 25.2534L2.92445 28.0441L0.195693 25.1852L3.11966 22.3944L5.84842 25.2534ZM14.6203 16.881L11.6964 19.6718L8.96759 16.8128L11.8916 14.0221L14.6203 16.881ZM20.4682 11.2995L17.5443 14.0903L14.8155 11.2313L17.7395 8.44051L20.4682 11.2995ZM29.2401 2.92717L26.3162 5.71795L23.5874 2.85896L26.5114 0.0681801L29.2401 2.92717ZM8.96759 16.8128L3.11966 22.3944L0.390901 19.5354L6.23883 13.9538L8.96759 16.8128ZM23.5874 2.85896L17.7395 8.44051L15.0107 5.58152L20.8587 -3.40984e-05L23.5874 2.85896Z" fill="#083979" fill-opacity="0.3"/>
</svg>
