<svg width="50" height="42" viewBox="0 0 50 42" fill="none" xmlns="http://www.w3.org/2000/svg">
<path d="M16.717 11.4465C16.1853 11.9392 15.8192 12.5843 15.6691 13.2934C15.5189 14.0024 15.5921 14.7406 15.8785 15.4064C16.1404 16.0036 16.5618 16.5186 17.0977 16.8911L21.6147 19.4947C22.7022 20.1278 23.6272 21.0057 24.3162 22.0586C25.0052 23.1116 25.4392 24.3105 25.5839 25.5604L26.1296 30.5494C26.226 31.2691 26.5432 31.9412 27.0376 32.473C27.5321 33.0049 28.1794 33.3703 28.8902 33.5189C29.6011 33.6675 30.3405 33.5919 31.0066 33.3027C31.6727 33.0134 32.2326 32.5246 32.6091 31.9038L35.139 27.465C35.7724 26.3818 36.6484 25.4601 37.698 24.7722C38.7477 24.0843 39.9425 23.6489 41.1887 23.5003L46.1749 22.9596C46.8949 22.864 47.5672 22.5465 48.0984 22.0513C48.6239 21.5527 48.9849 20.9057 49.1331 20.1967C49.2813 19.4876 49.2097 18.7502 48.9279 18.0828C48.6328 17.4043 48.1314 16.8358 47.495 16.4582L43.0977 13.9373C42.0445 13.3103 41.1472 12.4527 40.4731 11.4291C39.7991 10.4055 39.3658 9.24248 39.206 8.02744L38.6656 3.04494C38.569 2.32149 38.2492 1.64612 37.7507 1.1129C37.2522 0.579669 36.5998 0.215118 35.8844 0.0700046C35.169 -0.0751086 34.4261 0.00643872 33.7592 0.303292C33.0923 0.600146 32.5347 1.09753 32.1639 1.72618L29.7004 6.0271C29.0635 7.11403 28.1828 8.03819 27.1278 8.72676C26.0727 9.41532 24.8721 9.84946 23.6205 9.99497L18.6417 10.5385C17.9222 10.6338 17.2489 10.9509 16.7172 11.4453M18.9893 14.2079L18.9017 14.1064C18.8858 14.0627 18.8831 14.0152 18.894 13.97C18.9049 13.9247 18.9289 13.8837 18.963 13.852C18.9864 13.8295 19.0139 13.8116 19.0439 13.7991L23.9903 13.2622C25.7531 13.0657 27.4448 12.4571 28.9287 11.4858C30.4146 10.5123 31.6532 9.20598 32.5462 7.67049L34.9906 3.38978C35.0169 3.35115 35.0531 3.32024 35.0953 3.30022C35.1383 3.28115 35.1864 3.27703 35.232 3.28852C35.279 3.29924 35.319 3.32193 35.3521 3.35658C35.3741 3.38006 35.3916 3.40739 35.4037 3.43719L35.9421 8.40987C36.1652 10.1505 36.786 11.8164 37.7565 13.2787C38.7051 14.7021 39.961 15.8946 41.4316 16.7683L45.8226 19.2811C45.8628 19.3053 45.8943 19.3416 45.9128 19.3847C45.9313 19.4278 45.9357 19.4757 45.9254 19.5215C45.9172 19.5609 45.8991 19.5975 45.8727 19.628C45.8464 19.6584 45.8127 19.6816 45.7749 19.6954L40.8279 20.2349C39.0728 20.441 37.3894 21.0509 35.9098 22.0169C34.4252 22.9888 33.1871 24.2928 32.2937 25.8258L29.8229 30.1426L29.7807 30.2224C29.7546 30.2536 29.7204 30.2772 29.6819 30.2904C29.6434 30.3037 29.602 30.3061 29.5622 30.2976C29.5151 30.2877 29.4749 30.2659 29.4416 30.2321C29.4217 30.2087 29.4045 30.183 29.3905 30.1556L28.8545 25.1968C28.6528 23.437 28.0425 21.7486 27.0724 20.2663C26.1022 18.784 24.799 17.5489 23.2668 16.6594L18.9893 14.2079ZM0.821974 28.8226C0.434001 29.1827 0.167062 29.6541 0.057842 30.172L0.052637 30.1776C-0.0558482 30.7021 0.00280058 31.2475 0.220344 31.737C0.437883 32.2266 0.803382 32.6357 1.26546 32.9068L3.36408 34.1094C3.78208 34.3534 4.13776 34.691 4.40316 35.0957C4.66855 35.5004 4.83641 35.9611 4.89354 36.4416L5.16105 38.9008C5.21386 39.2924 5.35674 39.6666 5.57848 39.9937C5.80021 40.3209 6.09477 40.5923 6.43904 40.7865C6.7833 40.9808 7.1679 41.0926 7.56265 41.1132C7.95739 41.1339 8.35155 41.0628 8.71417 40.9055C9.22557 40.6808 9.65006 40.2959 9.92364 39.809L11.1282 37.7019C11.3726 37.2844 11.7105 36.9293 12.1153 36.6645C12.5202 36.3997 12.981 36.2324 13.4615 36.1757L15.9197 35.9082C16.4482 35.8384 16.9415 35.6051 17.3307 35.2411C17.7199 34.877 17.9855 34.4003 18.0903 33.8778C18.1951 33.3553 18.1338 32.8131 17.9151 32.3271C17.6963 31.8411 17.331 31.4357 16.8704 31.1675L14.7636 29.9592C14.3517 29.7206 13.9997 29.3912 13.7344 28.9961C13.4691 28.6009 13.2975 28.1505 13.2326 27.679L12.9651 25.2199C12.8954 24.6919 12.6623 24.1988 12.2984 23.8098C11.9345 23.4208 11.4581 23.1552 10.9358 23.0504C10.4136 22.9455 9.87156 23.0065 9.38571 23.2249C8.89987 23.4433 8.4945 23.8081 8.22635 24.2683L7.02187 26.3687C6.77733 26.7875 6.43835 27.1435 6.03193 27.4081C5.6255 27.6728 5.16287 27.8389 4.68088 27.8933L2.22388 28.1611C1.69892 28.2313 1.20867 28.4631 0.821974 28.8226ZM9.85788 28.0074L9.93979 27.8661L9.96519 28.0594C10.0901 29.0403 10.4403 29.9791 10.9882 30.8024C11.5362 31.6256 12.2672 32.3111 13.124 32.8051L13.2689 32.8891L13.0934 32.9061C12.1025 33.02 11.152 33.3638 10.3176 33.9102C9.48319 34.4565 8.78805 35.1902 8.28762 36.0529L8.18134 36.2401L8.16241 36.0737C8.04902 35.0816 7.70505 34.1299 7.15801 33.2945C6.61096 32.4591 5.87602 31.7632 5.01195 31.2625L4.86702 31.1785L5.03603 31.1602C6.03048 31.0479 6.98473 30.7041 7.82219 30.1564C8.65964 29.6086 9.35695 28.8722 9.85815 28.0061" fill="#215FC3"/>
</svg>
