<svg width="46" height="44" viewBox="0 0 46 44" fill="none" xmlns="http://www.w3.org/2000/svg">
<path d="M41.5608 24.9662C40.2536 27.9937 38.2796 30.6869 35.7859 32.8448C33.3348 34.939 30.4493 36.476 27.379 37.2867C24.3117 38.1177 21.0971 38.2156 17.9709 37.7103C14.8559 37.2049 11.787 36.0688 9.11296 34.1289C6.44883 32.2093 4.21241 29.4916 2.96723 26.3048C1.69762 23.1277 1.44621 19.5466 2.18135 16.1998C2.90653 12.8703 4.76957 9.86786 7.38435 7.87946C9.96399 5.85057 13.1501 4.81019 16.2387 4.75523C17.7576 4.73037 19.2722 4.92339 20.7362 5.32839C22.1356 5.72324 23.4411 6.39578 24.575 7.30595C26.7905 9.08881 28.208 11.7728 28.4481 14.5187C28.5615 15.8913 28.4119 17.273 28.0076 18.5896C27.6414 19.7048 26.9677 20.8684 26.0599 21.723C24.2737 23.5278 21.5636 24.3543 18.9895 23.8362C16.6681 23.4305 14.603 21.3003 14.2796 18.7053C14.1925 18.0483 14.2157 17.4208 14.3423 16.7034C14.4454 16.1011 14.6708 15.5264 15.0046 15.0146C15.7525 13.886 16.9066 13.089 18.227 12.7894C18.9267 12.6377 19.6493 12.6232 20.3546 12.7468C21.0218 12.8577 21.7089 13.1618 22.2828 13.6245C23.4558 14.5368 24.2202 16.1337 24.0842 17.8549L24.6588 17.9864C25.358 16.2036 25.0414 13.9295 23.6987 12.2661C23.0134 11.4112 22.1223 10.7442 21.1089 10.3276C20.1048 9.91249 19.0252 9.73801 17.9194 9.76337C15.7088 9.80661 13.4837 10.8124 11.9345 12.5476C11.1322 13.4325 10.5217 14.4739 10.1415 15.6063C9.78381 16.6775 9.60368 17.7999 9.60822 18.9293C9.61025 21.2717 10.3716 23.5503 11.7781 25.4234C13.2288 27.339 15.2579 28.7364 17.5648 29.4087C19.7483 30.0664 22.1327 30.0962 24.3789 29.5581C26.6308 29.0247 28.7236 27.8656 30.4227 26.2809C32.1062 24.6601 33.3872 22.6748 34.0587 20.3561C34.6778 18.2217 34.8318 15.9794 34.5105 13.7804C33.9137 9.38749 31.4153 5.37757 27.8538 2.89384C24.2844 0.351096 19.8312 -0.408344 15.8163 0.197281C11.7539 0.786895 8.05033 2.82334 5.347 5.654C2.67794 8.46159 0.928922 12.0166 0.333493 15.8444C-0.285735 19.557 -0.0408112 23.3624 1.04924 26.965C2.12683 30.5669 4.01976 34.0019 6.7417 36.8221C9.45089 39.6309 13.0225 41.7872 16.9417 42.708C24.7915 44.6342 33.4543 41.8248 38.8881 36.0783C41.6116 33.2451 43.5316 29.7379 44.4509 25.9171C45.3365 22.2535 45.2919 18.4266 44.3212 14.7846L43.7346 14.8399C43.5656 18.4333 42.9045 21.8782 41.5608 24.9662Z" fill="#083979"/>
</svg>
